<mxfile host="app.diagrams.net" modified="2023-09-07T09:25:24.847Z" agent="Mozilla/5.0 (Macintosh; Intel Mac OS X 10_15_7) AppleWebKit/605.1.15 (KHTML, like Gecko) Version/16.6 Safari/605.1.15" version="21.7.2" etag="iit0Ki1NLjCVDIQXdIoy" type="github">
  <diagram name="Seite-1" id="TgRaEhouu5qR246GsGoo">
    <mxGraphModel>
      <root>
        <mxCell id="0" />
        <mxCell id="1" parent="0" />
      </root>
    </mxGraphModel>
  </diagram>
</mxfile>
